<svg width="178" height="80" viewBox="0 0 178 80" fill="none" xmlns="http://www.w3.org/2000/svg">
<path d="M12.2663 19.0358C12.2663 22.3677 12.4831 24.4017 15.6867 24.4017C18.8873 24.4017 19.2354 22.7129 19.4065 19.729L26.5895 21.3322C26.5895 24.1877 25.9391 31.8471 15.6867 31.8471C5.42849 31.8471 4.82373 24.1877 4.82373 21.3322V10.5149C4.82373 7.65654 5.42849 0 15.6867 0C25.942 0 26.5895 7.65939 26.5895 10.5149L19.4065 12.1152C19.2325 9.12851 18.8873 7.44259 15.6867 7.44259C12.4831 7.44259 12.2663 9.47654 12.2663 12.8084V19.0358Z" fill="black"/>
<path d="M36.7907 0.773071V14.1891H43.5401V0.773071H50.9827V31.0655H43.5401V21.6317H36.7907V31.0655H29.3481V0.773071H36.7907Z" fill="black"/>
<path d="M62.0882 0.773071H54.7312V31.0655H62.0882V0.773071Z" fill="black"/>
<path d="M72.9053 19.0358C72.9053 22.3677 73.1221 24.4017 76.3257 24.4017C79.5263 24.4017 79.8744 22.7129 80.0484 19.729L87.2314 21.3322C87.2314 24.1877 86.581 31.8471 76.3285 31.8471C66.0703 31.8471 65.4656 24.1877 65.4656 21.3322V10.5149C65.4656 7.65654 66.0703 0 76.3285 0C86.5838 0 87.2314 7.65939 87.2314 10.5149L80.0484 12.1152C79.8744 9.12851 79.5292 7.44259 76.3257 7.44259C73.1221 7.44259 72.9053 9.47654 72.9053 12.8084V19.0358Z" fill="black"/>
<path d="M115.384 31.0655H105.996L99.7633 21.5461L97.5125 24.6612V31.0655H89.9844V0.773071H97.5125V11.6331L105.434 0.773071H114.78L104.698 14.6627L115.384 31.0655Z" fill="black"/>
<path d="M138.303 0.773071V8.21566H125.235V12.198H134.537V19.6406H125.235V23.6229H138.303V31.0655H117.532V0.773071H138.303Z" fill="black"/>
<path d="M150.007 0.773071L156.845 17.347V0.773071H164.288V31.0655H155.547L148.709 14.3603V31.0655H141.267V0.773071H150.007Z" fill="black"/>
<path d="M15.5812 37.9717V54.5457L8.7434 37.9717H0V68.2641H7.44544V51.559L14.2804 68.2641H23.0238V37.9717H15.5812Z" fill="#CDDB00"/>
<path d="M51.4108 51.2994C53.4875 51.2994 54.5259 51.0398 54.5259 48.3583C54.5259 45.6739 53.4875 45.4143 51.4108 45.4143H47.7736V51.2994H51.4108ZM51.1483 37.9717C58.8505 37.9717 61.9656 41.2609 61.9656 48.3583C61.9656 55.4557 58.8505 58.742 51.1483 58.742H47.7736V68.2613H40.3311V37.9717H51.1483Z" fill="black"/>
<path d="M71.9754 48.3583H64.6184V68.2641H71.9754V48.3583Z" fill="black"/>
<path d="M82.7955 56.2345C82.7955 59.5664 83.0123 61.6003 86.213 61.6003C89.4166 61.6003 89.7617 59.9116 89.9329 56.9277L97.1159 58.5309C97.1159 61.3864 96.4655 69.0458 86.2102 69.0458C75.9549 69.0458 75.3501 61.3864 75.3501 58.5309V47.7136C75.3501 44.8581 75.9549 37.1987 86.2102 37.1987C96.4655 37.1987 97.1159 44.8581 97.1159 47.7136L89.9329 49.3139C89.7617 46.33 89.4137 44.6413 86.213 44.6413C83.0123 44.6413 82.7955 46.6752 82.7955 50.0071V56.2345Z" fill="black"/>
<path d="M125.275 68.2641H115.884L109.653 58.7448L107.403 61.8599V68.2641H99.8716V37.9717H107.403V48.8347L115.322 37.9717H124.67L114.586 51.8613L125.275 68.2641Z" fill="black"/>
<path d="M134.862 37.9717V60.8216H147.112V68.2641H127.42V37.9717H134.862Z" fill="black"/>
<path d="M149.768 37.9717V68.2641H170.538V60.8216H157.47V56.8392H166.772V49.3966H157.47V45.4172H170.538V37.9717H149.768Z" fill="black"/>
<path d="M71.9357 42.2108C71.9357 42.2023 71.9357 42.1965 71.9328 42.188C71.9328 42.1965 71.9357 42.2051 71.9357 42.2108ZM71.9214 42.3534C71.9214 42.3449 71.9214 42.3335 71.9242 42.3249C71.9214 42.3335 71.9214 42.3449 71.9214 42.3534ZM71.87 42.4191C71.7788 42.7072 71.5677 42.8983 71.3965 42.847C71.2253 42.7928 71.1597 42.5132 71.251 42.2251C71.3423 41.937 71.5563 41.7458 71.7246 41.7972C71.8986 41.8514 71.9613 42.1281 71.87 42.4191ZM70.9287 40.6133C70.7518 40.8587 70.4066 40.9129 70.1613 40.7331C69.916 40.5563 69.8618 40.2111 70.0415 39.9658C70.2212 39.7204 70.5635 39.6662 70.8089 39.846C71.0513 40.0228 71.1055 40.368 70.9287 40.6133ZM69.779 44.2362C69.4767 44.2505 69.2171 44.0194 69.2028 43.7142C69.1885 43.4118 69.4225 43.155 69.7248 43.1379C70.0272 43.1237 70.2868 43.3576 70.3011 43.66C70.3153 43.9652 70.0843 44.2219 69.779 44.2362ZM68.4754 42.2137C68.1701 42.2137 67.9248 41.9683 67.9248 41.6631C67.9248 41.3607 68.1701 41.1125 68.4754 41.1125C68.7778 41.1125 69.0259 41.3607 69.0259 41.6631C69.0231 41.9683 68.7778 42.2137 68.4754 42.2137ZM67.6823 45.3259C67.3828 45.2746 67.166 45.092 67.1945 44.9151C67.2231 44.7383 67.4912 44.6356 67.7907 44.6841C68.0903 44.7354 68.3071 44.9208 68.2785 45.0949C68.25 45.2717 67.9819 45.3744 67.6823 45.3259ZM66.4985 39.6177C66.4985 39.3125 66.7438 39.0672 67.0462 39.0672C67.3514 39.0672 67.5968 39.3125 67.5968 39.6177C67.5968 39.9201 67.3514 40.1683 67.0462 40.1683C66.7438 40.1655 66.4985 39.9201 66.4985 39.6177ZM66.373 43.6029C66.0677 43.6029 65.8224 43.3576 65.8224 43.0523C65.8224 42.75 66.0677 42.5018 66.373 42.5018C66.6753 42.5018 66.9235 42.75 66.9235 43.0523C66.9235 43.3576 66.6753 43.6029 66.373 43.6029ZM69.103 38.1714C69.4025 38.2228 69.6193 38.4054 69.5908 38.5822C69.5622 38.7591 69.2941 38.8618 68.9946 38.8104C68.695 38.7591 68.4782 38.5765 68.5068 38.3997C68.5353 38.2228 68.8034 38.1201 69.103 38.1714ZM69.0003 38.1201C68.9432 38.1229 68.8862 38.1287 68.8291 38.1429C68.8833 38.1315 68.9432 38.1229 69.0003 38.1201ZM65.3603 41.0783C65.269 41.3693 65.0579 41.5576 64.8867 41.5062C64.7156 41.452 64.65 41.1753 64.7412 40.8843C64.8325 40.5962 65.0436 40.4051 65.2148 40.4593C65.3831 40.5135 65.4487 40.7902 65.3603 41.0783ZM71.4536 39.6377C70.2925 37.9119 67.9505 37.4526 66.2218 38.6136C64.4931 39.7746 64.0366 42.1195 65.1977 43.8454C66.3587 45.5741 68.7036 46.0305 70.4294 44.8695C72.1582 43.7056 72.6146 41.3636 71.4536 39.6377Z" fill="#CDDB00"/>
<path d="M176.3 67.4083H175.798L175.501 66.835H175.299V67.4083H174.842V65.5712H175.498C175.966 65.5712 176.155 65.7709 176.155 66.2017C176.155 66.4498 176.1 66.6125 175.938 66.7323L176.3 67.4083ZM175.296 66.0248V66.3785H175.51C175.635 66.3785 175.698 66.3614 175.698 66.1988C175.698 66.0362 175.635 66.0219 175.51 66.0219H175.296V66.0248Z" fill="black"/>
<path d="M175.478 68.2642C174.5 68.2642 173.704 67.4683 173.704 66.4898C173.704 65.5113 174.5 64.7155 175.478 64.7155C176.457 64.7155 177.253 65.5113 177.253 66.4898C177.253 67.4683 176.457 68.2642 175.478 68.2642ZM175.478 65.0549C174.685 65.0549 174.041 65.6996 174.041 66.4927C174.041 67.2857 174.685 67.9304 175.478 67.9304C176.272 67.9304 176.916 67.2857 176.916 66.4927C176.916 65.6996 176.272 65.0549 175.478 65.0549Z" fill="black"/>
<path d="M76.2573 73.7584C76.2573 73.6699 76.3372 73.5986 76.4256 73.5986H76.6481L80.1968 77.0133H80.2054V73.8554C80.2054 73.7669 80.2767 73.6871 80.3737 73.6871H81.4406C81.529 73.6871 81.6089 73.7669 81.6089 73.8554V79.8402C81.6089 79.9287 81.529 80 81.4406 80H81.298C81.2723 80 81.201 79.9743 81.1839 79.9544L77.6722 76.4256H77.6637V79.7433C77.6637 79.8317 77.5924 79.9116 77.4954 79.9116H76.437C76.3486 79.9116 76.2687 79.8317 76.2687 79.7433L76.2573 73.7584Z" fill="black"/>
<path d="M86.3245 73.5958C88.1017 73.5958 89.5251 75.0278 89.5251 76.805C89.5251 78.5822 88.1017 79.9971 86.3245 79.9971C84.5472 79.9971 83.1323 78.5822 83.1323 76.805C83.1323 75.0278 84.5444 73.5958 86.3245 73.5958ZM86.3245 78.5765C87.3029 78.5765 88.1017 77.7749 88.1017 76.8079C88.1017 75.8294 87.3001 75.0192 86.3245 75.0192C85.3545 75.0192 84.5558 75.8294 84.5558 76.8079C84.553 77.7749 85.3545 78.5765 86.3245 78.5765Z" fill="black"/>
<path d="M91.0457 73.8554C91.0457 73.7669 91.117 73.6871 91.214 73.6871H93.8726C94.9395 73.6871 95.8124 74.5486 95.8124 75.6069C95.8124 76.4256 95.2704 77.0817 94.4974 77.3955L95.7155 79.6548C95.7782 79.7718 95.7155 79.9116 95.5643 79.9116H94.3804C94.3091 79.9116 94.2549 79.8659 94.2378 79.8317L93.0539 77.4754H92.4406V79.7433C92.4406 79.8317 92.3607 79.9116 92.2723 79.9116H91.214C91.117 79.9116 91.0457 79.8317 91.0457 79.7433V73.8554V73.8554ZM93.7585 76.3457C94.1237 76.3457 94.4346 76.0091 94.4346 75.6354C94.4346 75.2617 94.1237 74.9594 93.7585 74.9594H92.4435V76.3457H93.7585Z" fill="black"/>
<path d="M98.2485 74.9936H96.9762C96.8792 74.9936 96.8079 74.9137 96.8079 74.8253V73.8554C96.8079 73.7669 96.8792 73.6871 96.9762 73.6871H100.924C101.021 73.6871 101.093 73.7669 101.093 73.8554V74.8253C101.093 74.9137 101.021 74.9936 100.924 74.9936H99.652V79.7433C99.652 79.8317 99.5721 79.9116 99.4837 79.9116H98.4168C98.3283 79.9116 98.2485 79.8317 98.2485 79.7433V74.9936V74.9936Z" fill="black"/>
<path d="M102.428 73.8554C102.428 73.7669 102.508 73.6871 102.596 73.6871H103.654C103.751 73.6871 103.823 73.7669 103.823 73.8554V76.0976H106.364V73.8554C106.364 73.7669 106.436 73.6871 106.533 73.6871H107.591C107.679 73.6871 107.759 73.7669 107.759 73.8554V79.7433C107.759 79.8317 107.679 79.9116 107.591 79.9116H106.533C106.436 79.9116 106.364 79.8317 106.364 79.7433V77.4041H103.823V79.7433C103.823 79.8317 103.751 79.9116 103.654 79.9116H102.596C102.508 79.9116 102.428 79.8317 102.428 79.7433V73.8554Z" fill="black"/>
<path d="M112.147 73.8982C112.147 73.784 112.235 73.6842 112.361 73.6842H113.402C113.519 73.6842 113.616 73.7812 113.616 73.8982V76.2373L115.59 73.7755C115.624 73.7298 115.707 73.6871 115.758 73.6871H116.879C117.048 73.6871 117.136 73.8839 117.039 74.0151L114.959 76.6196L117.227 79.5721C117.324 79.7062 117.227 79.9002 117.059 79.9002H115.832C115.77 79.9002 115.69 79.8659 115.673 79.8374L113.619 77.0446V79.6948C113.619 79.8117 113.522 79.9087 113.405 79.9087H112.364C112.238 79.9087 112.15 79.8117 112.15 79.6948V73.8982H112.147Z" fill="black"/>
<path d="M117.775 79.6805L120.559 73.6956C120.585 73.6414 120.647 73.5986 120.71 73.5986H120.799C120.861 73.5986 120.924 73.6443 120.95 73.6956L123.734 79.6805C123.788 79.7946 123.717 79.9116 123.583 79.9116H122.596C122.436 79.9116 122.365 79.8574 122.285 79.6891L121.965 78.9873H119.546L119.227 79.6976C119.181 79.8032 119.084 79.9116 118.907 79.9116H117.929C117.792 79.9116 117.721 79.7946 117.775 79.6805ZM121.429 77.7749L120.753 76.3087H120.744L120.077 77.7749H121.429Z" fill="black"/>
<path d="M124.898 73.7584C124.898 73.6699 124.978 73.5986 125.066 73.5986H125.289L128.837 77.0133H128.846V73.8554C128.846 73.7669 128.917 73.6871 129.014 73.6871H130.081C130.17 73.6871 130.25 73.7669 130.25 73.8554V79.8402C130.25 79.9287 130.17 80 130.081 80H129.939C129.913 80 129.842 79.9743 129.824 79.9544L126.313 76.4256H126.304V79.7433C126.304 79.8317 126.233 79.9116 126.136 79.9116H125.078C124.989 79.9116 124.909 79.8317 124.909 79.7433L124.898 73.7584Z" fill="black"/>
<path d="M131.87 79.0643L132.289 78.3255C132.361 78.2085 132.529 78.2285 132.592 78.2713C132.626 78.2884 133.268 78.7591 133.855 78.7591C134.212 78.7591 134.469 78.5366 134.469 78.2256C134.469 77.8519 134.158 77.5667 133.553 77.327C132.788 77.0246 131.827 76.4284 131.827 75.3615C131.827 74.4801 132.512 73.5929 133.881 73.5929C134.805 73.5929 135.518 74.0636 135.784 74.2604C135.889 74.3232 135.872 74.4829 135.838 74.5457L135.384 75.2303C135.322 75.3273 135.162 75.4072 135.082 75.3473C135.002 75.3016 134.352 74.8138 133.81 74.8138C133.49 74.8138 133.251 75.0278 133.251 75.2674C133.251 75.5955 133.519 75.8465 134.221 76.1289C134.914 76.4056 136.018 76.9476 136.018 78.1572C136.018 79.0729 135.228 79.9971 133.918 79.9971C132.763 79.9971 132.121 79.5179 131.918 79.3125C131.824 79.2269 131.799 79.1898 131.87 79.0643Z" fill="black"/>
<path d="M136.742 79.6805L139.527 73.6956C139.552 73.6414 139.615 73.5986 139.678 73.5986H139.766C139.829 73.5986 139.892 73.6443 139.917 73.6956L142.702 79.6805C142.756 79.7946 142.684 79.9116 142.55 79.9116H141.563C141.404 79.9116 141.332 79.8574 141.252 79.6891L140.933 78.9873H138.514L138.194 79.6976C138.149 79.8032 138.052 79.9116 137.875 79.9116H136.896C136.759 79.9116 136.688 79.7946 136.742 79.6805ZM140.397 77.7749L139.721 76.3087H139.712L139.044 77.7749H140.397Z" fill="black"/>
<path d="M143.517 79.0643L143.937 78.3255C144.008 78.2085 144.176 78.2285 144.239 78.2713C144.273 78.2884 144.915 78.7591 145.503 78.7591C145.859 78.7591 146.116 78.5366 146.116 78.2256C146.116 77.8519 145.805 77.5667 145.2 77.327C144.436 77.0246 143.475 76.4284 143.475 75.3615C143.475 74.4801 144.159 73.5929 145.529 73.5929C146.453 73.5929 147.166 74.0636 147.431 74.2604C147.537 74.3232 147.52 74.4829 147.485 74.5457L147.032 75.2303C146.969 75.3273 146.809 75.4072 146.729 75.3473C146.65 75.3016 145.999 74.8138 145.457 74.8138C145.138 74.8138 144.898 75.0278 144.898 75.2674C144.898 75.5955 145.166 75.8465 145.868 76.1289C146.561 76.4056 147.665 76.9476 147.665 78.1572C147.665 79.0729 146.875 79.9971 145.566 79.9971C144.41 79.9971 143.768 79.5179 143.566 79.3125C143.475 79.2269 143.449 79.1898 143.517 79.0643Z" fill="black"/>
<path d="M154.357 73.5958C155.247 73.5958 155.904 73.8725 156.508 74.423C156.588 74.4944 156.588 74.5999 156.517 74.6712L155.824 75.3929C155.761 75.4557 155.664 75.4557 155.601 75.3929C155.273 75.0991 154.837 74.9394 154.4 74.9394C153.396 74.9394 152.657 75.7752 152.657 76.7708C152.657 77.7578 153.405 78.5765 154.409 78.5765C154.825 78.5765 155.279 78.4253 155.601 78.1486C155.664 78.0944 155.778 78.0944 155.832 78.1572L156.525 78.896C156.588 78.9588 156.58 79.0729 156.517 79.1356C155.912 79.7233 155.148 79.9971 154.357 79.9971C152.58 79.9971 151.148 78.5822 151.148 76.805C151.148 75.0278 152.58 73.5958 154.357 73.5958Z" fill="black"/>
<path d="M158.032 73.8554C158.032 73.7669 158.112 73.6871 158.2 73.6871H159.267C159.355 73.6871 159.435 73.7669 159.435 73.8554V79.7433C159.435 79.8317 159.355 79.9116 159.267 79.9116H158.2C158.112 79.9116 158.032 79.8317 158.032 79.7433V73.8554Z" fill="black"/>
<path d="M162.211 74.9936H160.939C160.842 74.9936 160.77 74.9137 160.77 74.8253V73.8554C160.77 73.7669 160.842 73.6871 160.939 73.6871H164.887C164.984 73.6871 165.055 73.7669 165.055 73.8554V74.8253C165.055 74.9137 164.984 74.9936 164.887 74.9936H163.614V79.7433C163.614 79.8317 163.534 79.9116 163.446 79.9116H162.379C162.291 79.9116 162.211 79.8317 162.211 79.7433V74.9936V74.9936Z" fill="black"/>
<path d="M167.839 76.9134L165.874 73.9438C165.802 73.8297 165.874 73.6871 166.016 73.6871H167.172C167.243 73.6871 167.289 73.7327 167.314 73.7669L168.549 75.5898L169.785 73.7669C169.81 73.7327 169.847 73.6871 169.927 73.6871H171.083C171.225 73.6871 171.297 73.8297 171.225 73.9438L169.234 76.9049V79.7404C169.234 79.8289 169.154 79.9087 169.066 79.9087H168.007C167.91 79.9087 167.839 79.8289 167.839 79.7404V76.9134V76.9134Z" fill="black"/>
</svg>
